<?xml version="1.0" encoding="UTF-8" standalone="no"?>
<!-- Created with Inkscape (http://www.inkscape.org/) -->

<svg
   width="210mm"
   height="297mm"
   viewBox="0 0 210 297"
   version="1.1"
   id="svg5"
   inkscape:version="1.1.1 (3bf5ae0d25, 2021-09-20)"
   sodipodi:docname="apple.svg"
   xmlns:inkscape="http://www.inkscape.org/namespaces/inkscape"
   xmlns:sodipodi="http://sodipodi.sourceforge.net/DTD/sodipodi-0.dtd"
   xmlns="http://www.w3.org/2000/svg"
   xmlns:svg="http://www.w3.org/2000/svg">
  <sodipodi:namedview
     id="namedview7"
     pagecolor="#ffffff"
     bordercolor="#666666"
     borderopacity="1.0"
     inkscape:pageshadow="2"
     inkscape:pageopacity="0.0"
     inkscape:pagecheckerboard="0"
     inkscape:document-units="mm"
     showgrid="false"
     inkscape:zoom="0.97577499"
     inkscape:cx="578.51452"
     inkscape:cy="414.02988"
     inkscape:window-width="1920"
     inkscape:window-height="1131"
     inkscape:window-x="0"
     inkscape:window-y="0"
     inkscape:window-maximized="1"
     inkscape:current-layer="layer3" />
  <defs
     id="defs2" />
  <g
     inkscape:label="Layer 1"
     inkscape:groupmode="layer"
     id="layer1"
     style="display:none;opacity:0.219844"
     sodipodi:insensitive="true">
    <path
       style="fill:none;stroke:#000000;stroke-width:0.264583px;stroke-linecap:butt;stroke-linejoin:miter;stroke-opacity:1"
       d="m 94.919595,100.04976 c -2.197539,-0.999569 -4.368922,-2.214671 -6.784025,-2.606797 -3.942977,-0.640199 -7.559693,0.768237 -11.086825,2.3548 -1.15135,0.517897 -2.881225,1.113957 -3.868478,2.003907 -0.747527,0.67385 -1.323583,1.51647 -1.99014,2.27051 -1.312648,1.48493 -2.137138,2.23576 -3.15378,3.98028 -2.309906,3.96371 -3.058684,9.03158 -3.840097,13.48291 -0.598601,3.40994 -1.15857,6.872 -1.20578,10.34375 -0.05294,3.89264 1.103831,7.65401 2.116566,11.36634 1.244957,4.56356 2.398218,7.58408 4.989975,11.52028 0.447149,0.67911 2.454151,3.80795 2.845025,4.3028 2.345934,2.97001 6.463512,4.50293 9.979949,5.41054 3.278941,0.84631 5.872289,1.67072 9.348676,1.00883 1.808533,-0.34434 3.941588,-1.23593 5.017495,-2.80288 0.543218,-0.79115 0.792178,-2.02008 1.709766,-2.48123 0.752252,0.60289 1.523458,1.18286 2.256758,1.80867 2.33723,1.99466 5.03148,2.47766 7.75071,3.71367 2.53452,1.15206 4.95003,2.33684 7.84962,1.96262 3.15141,-0.40671 7.65212,-2.69024 9.783,-5.05963 1.52552,-1.69627 2.47527,-3.84182 3.67239,-5.76058 1.15897,-1.85761 2.20398,-3.73756 3.01359,-5.78809 1.0067,-2.54968 0.91026,-5.18233 0.96669,-7.86338 0.0747,-3.5471 0.0564,-6.94899 -0.28037,-10.48308 -0.46687,-4.89936 -0.66202,-9.88547 -1.86372,-14.67406 -0.73414,-2.92546 -2.37149,-5.61292 -3.68614,-8.31147 -0.81932,-1.68176 -1.49802,-3.66165 -2.77537,-5.0734 -0.65455,-0.72342 -1.46885,-1.28653 -2.15871,-1.97638 -1.37992,-1.37992 -2.00719,-2.782116 -3.75581,-3.826332 -1.0841,-0.647395 -2.52664,-1.021416 -3.74291,-1.345109 -5.43551,-1.446583 -11.11427,-1.175893 -16.370932,0.616652 -1.811248,0.617643 -2.703554,3.075929 -4.7096,3.531339"
       id="path78" />
    <path
       style="fill:none;stroke:#000000;stroke-width:0.264583px;stroke-linecap:butt;stroke-linejoin:miter;stroke-opacity:1"
       d="m 94.919595,100.04976 c 0.635286,-0.971852 1.578973,-1.801447 1.905857,-2.915552 0.746292,-2.543556 -3.099826,-7.353377 -4.456747,-9.586047 -0.29259,-0.481428 -0.905661,-1.115134 -1.065594,-1.667627 -0.105132,-0.363177 1.590329,-1.040326 1.696006,-1.093975 1.747359,-0.887082 5.713793,-3.314634 7.681053,-1.316728 1.81572,1.844008 -0.946121,9.807326 -1.486157,11.660476 -1.135727,3.897275 -0.08138,3.154672 -4.274418,4.919453"
       id="path80" />
    <path
       style="fill:none;stroke:#000000;stroke-width:0.264583px;stroke-linecap:butt;stroke-linejoin:miter;stroke-opacity:1"
       d="m 94.919595,100.04976 c 0,0 -39.65232,-12.893781 -30.092933,37.92621 9.559388,50.81999 35.643658,29.68441 35.643658,29.68441 0,0 11.38182,9.48886 22.27169,3.05574 10.88988,-6.43313 16.55241,-15.37501 17.43567,-29.85298 0.88327,-14.47798 1.38725,-34.31059 -3.72829,-39.43989 -5.11554,-5.129306 -5.14392,-5.591149 -14.85726,-6.502795 -9.71333,-0.911646 -21.795227,7.764475 -21.795227,7.764475 l -4.877308,-2.63517 v 0 l 1.513676,11.98299 -1.513676,-11.98299 c 0,0 -12.614262,25.47966 -1.794052,9.67033 10.820207,-15.809327 1.794052,-9.67033 1.794052,-9.67033"
       id="path115" />
    <rect
       style="fill:#4c09ff;fill-opacity:1;stroke-width:1.5;stroke-linecap:round;stroke-linejoin:round;stroke-miterlimit:4;stroke-dasharray:none"
       id="rect18030"
       width="156.73962"
       height="157.62509"
       x="25.750965"
       y="37.298229" />
  </g>
  <g
     inkscape:groupmode="layer"
     id="layer4"
     inkscape:label="Layer 2"
     style="display:inline">
    <path
       style="fill:#ffffff;fill-opacity:1;stroke:none;stroke-width:0.264583px;stroke-linecap:butt;stroke-linejoin:miter;stroke-opacity:1"
       d="m 96.448241,82.349895 9.024349,1.095335 15.75883,-3.841996 12.1796,-6.755498 c 0,0 4.60216,-5.183663 4.41787,-10.663899 -0.1843,-5.480237 -2.85428,-12.800382 -2.85428,-12.800382 0,0 -7.98015,-1.391672 -15.08624,2.172496 -7.10609,3.564165 -15.18527,14.482974 -15.18527,14.482974 0,0 -4.30022,-14.651249 -9.988779,-15.599291 -5.688555,-0.948042 -6.401808,4.79049 -6.401808,4.79049 l 5.06971,8.689377 c 0,0 4.396978,6.166747 3.731498,12.298569 -0.66548,6.131825 -0.66548,6.131825 -0.66548,6.131825 z"
       id="path18479" />
  </g>
  <g
     inkscape:groupmode="layer"
     id="layer3"
     inkscape:label="Layer 3"
     style="display:inline">
    <path
       style="display:inline;fill:#ffffff;fill-opacity:1;stroke:#000000;stroke-width:3.38528;stroke-linecap:round;stroke-linejoin:round;stroke-miterlimit:4;stroke-dasharray:none;stroke-opacity:1"
       d="m 84.832263,80.661939 c 0,0 -26.922341,-6.436469 -39.898974,23.121891 -12.976629,29.55837 -4.248065,58.63219 4.299003,71.89792 8.021649,12.45017 16.087402,13.5788 29.138882,13.58751 10.879219,0.007 11.830689,-0.89897 24.438606,-3.12925 0,0 7.07626,3.66613 20.75746,5.04807 6.92822,0.69985 23.35665,0.86797 33.87677,-11.08778 10.52003,-11.95568 14.81705,-46.22974 10.43235,-64.3607 -3.7468,-15.49327 -19.72817,-32.118578 -27.35704,-34.407654 -7.62887,-2.289061 -20.91054,-2.50841 -28.98208,0.965083 -8.07148,3.473409 -15.088997,0.05287 -26.704977,-1.63509 z"
       id="path50875"
       sodipodi:nodetypes="csssssssssc" />
    <path
       style="display:inline;fill:none;fill-opacity:1;stroke:#000000;stroke-width:3.38528;stroke-linecap:round;stroke-linejoin:round;stroke-miterlimit:4;stroke-dasharray:none;stroke-opacity:1"
       d="m 96.448243,82.349895 c 0,0 1.68365,-8.437309 -3.06602,-18.430394 l -5.06971,-8.689377 6.40181,-4.790489 c 0,0 5.792677,2.863488 8.987667,14.373395 3.71343,13.37758 1.7706,18.6322 1.7706,18.6322"
       id="path50883"
       sodipodi:nodetypes="ccccsc" />
    <path
       style="display:inline;fill:none;fill-opacity:1;stroke:#000000;stroke-width:3.38528;stroke-linecap:round;stroke-linejoin:round;stroke-miterlimit:4;stroke-dasharray:none;stroke-opacity:1"
       d="m 104.7031,66.038926 c 0,0 4.87487,-10.123486 12.63039,-13.684761 11.41574,-5.242016 17.64112,-2.970709 17.64112,-2.970709 0,0 6.57307,16.391949 -2.16992,23.046805 -8.74299,6.654953 -20.22969,8.811947 -20.22969,8.811947 l -5.21563,0.484419 c 0,0 3.78423,-4.044621 8.7968,-11.026302 8.24934,-11.489988 12.55547,-14.635146 12.55547,-14.635146"
       id="path50885"
       sodipodi:nodetypes="cscsccsc" />
  </g>
</svg>
