<?xml version="1.0" encoding="UTF-8" standalone="no"?>
<svg
   xmlns:dc="http://purl.org/dc/elements/1.1/"
   xmlns:cc="http://creativecommons.org/ns#"
   xmlns:rdf="http://www.w3.org/1999/02/22-rdf-syntax-ns#"
   xmlns:svg="http://www.w3.org/2000/svg"
   xmlns="http://www.w3.org/2000/svg"
   xmlns:sodipodi="http://sodipodi.sourceforge.net/DTD/sodipodi-0.dtd"
   xmlns:inkscape="http://www.inkscape.org/namespaces/inkscape"
   width="210mm"
   height="297mm"
   viewBox="0 0 210 297"
   version="1.1"
   id="svg8"
   inkscape:version="1.0.2 (e86c870879, 2021-01-15)"
   sodipodi:docname="drawing-2.svg">
  <defs
     id="defs2" />
  <sodipodi:namedview
     id="base"
     pagecolor="#ffffff"
     bordercolor="#666666"
     borderopacity="1.0"
     inkscape:pageopacity="0.0"
     inkscape:pageshadow="2"
     inkscape:zoom="0.37235872"
     inkscape:cx="-553.38172"
     inkscape:cy="557.31442"
     inkscape:document-units="mm"
     inkscape:current-layer="layer1"
     inkscape:document-rotation="0"
     showgrid="false"
     inkscape:window-width="1920"
     inkscape:window-height="1043"
     inkscape:window-x="0"
     inkscape:window-y="0"
     inkscape:window-maximized="1" />
  <metadata
     id="metadata5">
    <rdf:RDF>
      <cc:Work
         rdf:about="">
        <dc:format>image/svg+xml</dc:format>
        <dc:type
           rdf:resource="http://purl.org/dc/dcmitype/StillImage" />
        <dc:title></dc:title>
      </cc:Work>
    </rdf:RDF>
  </metadata>
  <g
     inkscape:label="Layer 1"
     inkscape:groupmode="layer"
     id="layer1">
    <path
       style="fill:#000000;stroke-width:0.529167"
       id="path833"
       d="m 51.867688,102.88629 c 6.481771,-2.16222 13.170757,-4.212935 19.981535,-5.039723 1.426408,-0.17316 2.869422,-0.157845 4.304133,-0.236765 0.932058,0.247613 1.986126,0.219514 2.796172,0.742841 1.71147,1.105683 0.978352,3.185697 0.608867,4.640747 -0.706234,2.7812 -1.930352,5.28741 -2.710572,8.04794 -0.416467,1.47352 -0.665122,2.98939 -0.997682,4.48408 -0.08139,2.61508 -0.640861,5.52874 1.008861,7.91491 3.741518,5.41175 14.172197,3.23063 19.377908,2.41665 0,0 2.785399,-2.07485 2.785399,-2.07485 v 0 c -4.778603,0.36988 -14.607066,2.01062 -17.944047,-2.6605 -1.628987,-2.28027 -1.125133,-5.06497 -1.08349,-7.59457 1.398283,-6.23999 0.405916,-2.66141 2.529388,-8.71811 0.534567,-1.52472 2.113632,-5.243878 1.691912,-7.173312 -0.529738,-2.423637 -2.786382,-2.19278 -4.598482,-2.577513 -1.507413,0.113713 -3.023626,0.142716 -4.522245,0.341135 -3.107097,0.411385 -7.464756,1.420813 -10.50961,2.146938 -2.102482,0.501391 -5.540353,1.356638 -7.734892,2.053645 -0.566317,0.179869 -1.1112,0.421317 -1.666798,0.631977 0,0 -3.316357,2.65448 -3.316357,2.65448 z" />
  </g>
</svg>
