<?xml version="1.0" encoding="UTF-8" standalone="no"?>
<svg
   xmlns:dc="http://purl.org/dc/elements/1.1/"
   xmlns:cc="http://creativecommons.org/ns#"
   xmlns:rdf="http://www.w3.org/1999/02/22-rdf-syntax-ns#"
   xmlns:svg="http://www.w3.org/2000/svg"
   xmlns="http://www.w3.org/2000/svg"
   xmlns:sodipodi="http://sodipodi.sourceforge.net/DTD/sodipodi-0.dtd"
   xmlns:inkscape="http://www.inkscape.org/namespaces/inkscape"
   width="210mm"
   height="297mm"
   viewBox="0 0 210 297"
   version="1.1"
   id="svg8"
   inkscape:version="1.0.2 (e86c870879, 2021-01-15)"
   sodipodi:docname="drawing-4.svg">
  <defs
     id="defs2" />
  <sodipodi:namedview
     id="base"
     pagecolor="#ffffff"
     bordercolor="#666666"
     borderopacity="1.0"
     inkscape:pageopacity="0.0"
     inkscape:pageshadow="2"
     inkscape:zoom="0.35"
     inkscape:cx="-247.14286"
     inkscape:cy="557.14286"
     inkscape:document-units="mm"
     inkscape:current-layer="layer1"
     inkscape:document-rotation="0"
     showgrid="false"
     inkscape:window-width="1920"
     inkscape:window-height="1043"
     inkscape:window-x="0"
     inkscape:window-y="0"
     inkscape:window-maximized="1" />
  <metadata
     id="metadata5">
    <rdf:RDF>
      <cc:Work
         rdf:about="">
        <dc:format>image/svg+xml</dc:format>
        <dc:type
           rdf:resource="http://purl.org/dc/dcmitype/StillImage" />
        <dc:title></dc:title>
      </cc:Work>
    </rdf:RDF>
  </metadata>
  <g
     inkscape:label="Layer 1"
     inkscape:groupmode="layer"
     id="layer1">
    <path
       style="fill:#000000;stroke-width:0.529167"
       id="path10"
       d="m 36.042496,78.146375 c -0.744693,2.962775 -0.991568,6.167424 0.275059,9.049699 1.198424,2.727084 2.195195,3.416274 4.213891,5.581648 5.270598,4.442258 11.889042,6.521272 18.376593,8.471878 1.580367,0.46557 3.177686,0.86494 4.784222,1.2269 3.249465,0.93266 4.460156,-0.74275 5.657448,-2.653557 1.533845,-2.500093 1.809557,-5.299617 1.682536,-8.163464 -0.782254,-5.571392 -4.420942,-8.60584 -8.794946,-11.63792 -3.820081,-2.139307 -8.014872,-3.769501 -12.407138,-4.201589 -3.178688,-0.312703 -6.677189,0.349909 -9.715391,0.676317 -0.473644,0.248132 -0.947285,0.496266 -1.420929,0.744398 0,0 2.986193,0.122221 2.986193,0.122221 v 0 c 0.890117,-0.204536 1.780236,-0.409072 2.670352,-0.613606 -0.552304,0.01437 -2.206368,-0.01468 -1.656908,0.04308 0.982602,0.103333 1.979713,-0.0067 2.962561,0.09422 4.352457,0.447077 8.537083,1.936078 12.33533,4.066469 0.829477,0.568941 1.699802,1.082492 2.488435,1.706819 3.164777,2.505427 5.648762,5.78988 6.251075,9.844886 0.103153,2.814831 -0.245888,5.522733 -1.855766,7.915916 -0.29749,0.45001 -0.37665,0.58087 -0.676106,0.9961 -0.07913,0.10971 -0.377309,0.34162 -0.24307,0.32495 1.370462,-0.17017 5.406589,-1.12031 4.070787,-0.76994 -1.757895,-0.0888 -3.463809,-0.70616 -5.179907,-1.027064 -6.527313,-1.678779 -13.169471,-3.66771 -18.360654,-8.16851 -1.764342,-1.926897 -2.91977,-2.840075 -3.960948,-5.242777 -1.214432,-2.802517 -0.841319,-5.873904 -0.02442,-8.706805 0,0 -4.458292,0.319728 -4.458292,0.319728 z" />
  </g>
</svg>
