<?xml version="1.0" encoding="UTF-8" standalone="no"?>
<svg
   xmlns:dc="http://purl.org/dc/elements/1.1/"
   xmlns:cc="http://creativecommons.org/ns#"
   xmlns:rdf="http://www.w3.org/1999/02/22-rdf-syntax-ns#"
   xmlns:svg="http://www.w3.org/2000/svg"
   xmlns="http://www.w3.org/2000/svg"
   xmlns:sodipodi="http://sodipodi.sourceforge.net/DTD/sodipodi-0.dtd"
   xmlns:inkscape="http://www.inkscape.org/namespaces/inkscape"
   width="210mm"
   height="297mm"
   viewBox="0 0 210 297"
   version="1.1"
   id="svg8"
   inkscape:version="1.0.2 (e86c870879, 2021-01-15)"
   sodipodi:docname="drawing-3.svg">
  <defs
     id="defs2" />
  <sodipodi:namedview
     id="base"
     pagecolor="#ffffff"
     bordercolor="#666666"
     borderopacity="1.0"
     inkscape:pageopacity="0.0"
     inkscape:pageshadow="2"
     inkscape:zoom="0.37235872"
     inkscape:cx="-79.775085"
     inkscape:cy="602.91686"
     inkscape:document-units="mm"
     inkscape:current-layer="layer1"
     inkscape:document-rotation="0"
     showgrid="false"
     inkscape:window-width="1920"
     inkscape:window-height="1043"
     inkscape:window-x="0"
     inkscape:window-y="0"
     inkscape:window-maximized="1" />
  <metadata
     id="metadata5">
    <rdf:RDF>
      <cc:Work
         rdf:about="">
        <dc:format>image/svg+xml</dc:format>
        <dc:type
           rdf:resource="http://purl.org/dc/dcmitype/StillImage" />
        <dc:title></dc:title>
      </cc:Work>
    </rdf:RDF>
  </metadata>
  <g
     inkscape:label="Layer 1"
     inkscape:groupmode="layer"
     id="layer1">
    <path
       style="fill:#000000;stroke-width:0.529167"
       id="path833"
       d="m 35.293091,89.821413 c 2.749774,-0.511911 6.086578,-1.169313 8.798821,-1.486741 2.881683,-0.337259 6.397895,-0.915133 9.227651,0.407678 0.923385,0.431651 1.904055,1.112472 2.249355,2.071499 0.430009,1.1943 -0.08884,2.537153 -0.133255,3.80573 -1.581626,6.029701 -5.349962,11.152721 -6.879926,17.205941 -0.873794,3.45712 -1.338871,7.06757 0.783432,10.2581 0.950978,1.42965 2.578933,2.26762 3.868398,3.40142 2.077413,0.55762 4.154827,1.11524 6.232237,1.67286 0,0 3.088942,-2.09407 3.088942,-2.09407 v 0 c -1.716191,-0.72331 -3.432382,-1.44663 -5.148572,-2.16995 -1.206093,-1.08182 -2.716126,-1.89969 -3.618278,-3.24547 -2.048984,-3.05657 -1.757889,-6.45068 -0.911847,-9.82203 1.554914,-6.19612 5.609569,-11.347975 7.15731,-17.544051 -0.08044,-1.373703 0.410046,-2.90898 -0.241316,-4.12111 -1.425345,-2.652453 -6.133404,-2.060917 -8.078327,-1.95494 -4.675584,0.254767 -9.309153,1.271473 -13.958038,1.780704 0,0 -2.436587,1.83443 -2.436587,1.83443 z" />
  </g>
</svg>
