<?xml version="1.0" encoding="UTF-8" standalone="no"?>
<svg
   xmlns:dc="http://purl.org/dc/elements/1.1/"
   xmlns:cc="http://creativecommons.org/ns#"
   xmlns:rdf="http://www.w3.org/1999/02/22-rdf-syntax-ns#"
   xmlns:svg="http://www.w3.org/2000/svg"
   xmlns="http://www.w3.org/2000/svg"
   xmlns:sodipodi="http://sodipodi.sourceforge.net/DTD/sodipodi-0.dtd"
   xmlns:inkscape="http://www.inkscape.org/namespaces/inkscape"
   width="210mm"
   height="297mm"
   viewBox="0 0 210 297"
   version="1.1"
   id="svg8"
   inkscape:version="1.0.2 (e86c870879, 2021-01-15)"
   sodipodi:docname="drawing-1.svg">
  <defs
     id="defs2" />
  <sodipodi:namedview
     id="base"
     pagecolor="#ffffff"
     bordercolor="#666666"
     borderopacity="1.0"
     inkscape:pageopacity="0.0"
     inkscape:pageshadow="2"
     inkscape:zoom="0.37235872"
     inkscape:cx="-347.93468"
     inkscape:cy="557.31442"
     inkscape:document-units="mm"
     inkscape:current-layer="layer1"
     inkscape:document-rotation="0"
     showgrid="false"
     inkscape:window-width="1920"
     inkscape:window-height="1043"
     inkscape:window-x="0"
     inkscape:window-y="0"
     inkscape:window-maximized="1" />
  <metadata
     id="metadata5">
    <rdf:RDF>
      <cc:Work
         rdf:about="">
        <dc:format>image/svg+xml</dc:format>
        <dc:type
           rdf:resource="http://purl.org/dc/dcmitype/StillImage" />
        <dc:title></dc:title>
      </cc:Work>
    </rdf:RDF>
  </metadata>
  <g
     inkscape:label="Layer 1"
     inkscape:groupmode="layer"
     id="layer1">
    <path
       style="fill:#000000;stroke-width:0.529167"
       id="path833"
       d="m 51.99649,97.433245 c 4.63977,-1.329026 9.394566,-2.466382 14.20645,-2.961629 1.633141,-0.168085 6.308767,-0.632103 8.188,0.560961 0.565591,0.359077 0.564544,1.21516 0.846817,1.822741 -0.466534,0.965047 -0.823423,1.99127 -1.399603,2.895145 -0.963608,1.511657 -2.125041,2.887757 -3.200826,4.321747 -2.304354,3.07163 -5.82852,7.39317 -7.604845,10.82875 -0.869503,1.68169 -1.673558,3.44961 -2.006589,5.31327 -0.257525,1.44112 0.18256,2.92221 0.273838,4.38332 0.890836,0.99336 1.524574,2.29993 2.672509,2.98008 2.79111,1.65372 7.343346,1.62788 10.33568,1.53598 5.255998,-0.16144 6.4701,-0.67047 11.668046,-1.77662 0,0 1.265737,-0.94849 1.265737,-0.94849 v 0 c -1.551328,0.10362 -3.104247,0.18566 -4.653983,0.31087 -1.888707,0.15261 -3.766675,0.46057 -5.660525,0.52252 -2.854061,0.0933 -7.312835,0.0963 -10.003301,-1.43587 -1.098642,-0.62566 -1.733997,-1.84041 -2.600994,-2.76061 -0.145256,-1.38091 -0.652227,-2.77118 -0.435769,-4.14273 0.915556,-5.80126 6.242042,-11.55073 9.643002,-16.05947 1.10808,-1.46901 2.356027,-2.849176 3.277571,-4.441844 0.542784,-0.938069 0.712811,-2.047012 1.069215,-3.070518 -0.489347,-0.564121 -0.77679,-1.409764 -1.468043,-1.692365 -2.129475,-0.870575 -7.238532,-0.230929 -9.038958,-0.02225 -4.660609,0.540163 -9.301196,1.42638 -13.83171,2.641748 0,0 -1.541719,1.195274 -1.541719,1.195274 z" />
  </g>
</svg>
