<?xml version="1.0" encoding="UTF-8" standalone="no"?>
<svg
   xmlns:dc="http://purl.org/dc/elements/1.1/"
   xmlns:cc="http://creativecommons.org/ns#"
   xmlns:rdf="http://www.w3.org/1999/02/22-rdf-syntax-ns#"
   xmlns:svg="http://www.w3.org/2000/svg"
   xmlns="http://www.w3.org/2000/svg"
   xmlns:sodipodi="http://sodipodi.sourceforge.net/DTD/sodipodi-0.dtd"
   xmlns:inkscape="http://www.inkscape.org/namespaces/inkscape"
   width="210mm"
   height="297mm"
   viewBox="0 0 210 297"
   version="1.1"
   id="svg8"
   inkscape:version="1.0.2 (e86c870879, 2021-01-15)"
   sodipodi:docname="drawing-4.svg">
  <defs
     id="defs2" />
  <sodipodi:namedview
     id="base"
     pagecolor="#ffffff"
     bordercolor="#666666"
     borderopacity="1.0"
     inkscape:pageopacity="0.0"
     inkscape:pageshadow="2"
     inkscape:zoom="0.37235872"
     inkscape:cx="269.74926"
     inkscape:cy="556.8716"
     inkscape:document-units="mm"
     inkscape:current-layer="layer1"
     inkscape:document-rotation="0"
     showgrid="false"
     inkscape:window-width="1920"
     inkscape:window-height="1043"
     inkscape:window-x="0"
     inkscape:window-y="0"
     inkscape:window-maximized="1" />
  <metadata
     id="metadata5">
    <rdf:RDF>
      <cc:Work
         rdf:about="">
        <dc:format>image/svg+xml</dc:format>
        <dc:type
           rdf:resource="http://purl.org/dc/dcmitype/StillImage" />
        <dc:title></dc:title>
      </cc:Work>
    </rdf:RDF>
  </metadata>
  <g
     inkscape:label="Layer 1"
     inkscape:groupmode="layer"
     id="layer1">
    <path
       style="fill:#000000;stroke-width:0.529167"
       id="path833"
       d="m 43.914287,83.872169 c 8.592021,-1.458378 17.176795,-3.14543 25.88061,-3.790119 1.612331,-0.119425 3.230163,-0.146764 4.845243,-0.220146 1.720562,0.298079 5.995313,-0.580417 7.095953,1.693579 1.012672,2.092246 -1.273945,6.910649 -1.893377,8.597799 -1.955466,4.89916 -4.497739,9.525257 -6.829933,14.246198 -0.653978,1.32382 -2.931493,5.88492 -3.334416,7.60074 -0.203134,0.86503 -0.06202,1.77604 -0.09302,2.66406 0.528756,0.62041 0.888206,1.44028 1.586269,1.86123 2.084433,1.25697 5.606823,1.22367 7.77434,1.21514 5.837944,-0.023 11.548035,-0.9111 17.283668,-1.88332 0,0 0.977614,-0.72122 0.977614,-0.72122 v 0 c -1.419992,-0.0899 -2.83732,-0.24708 -4.259977,-0.26959 -7.391162,-0.11695 -2.897648,0.37322 -10.259613,0.18906 -1.892482,-0.0473 -5.290611,-0.11936 -7.175783,-1.15695 -0.609788,-0.33562 -0.957855,-1.01017 -1.436785,-1.51526 -0.01087,-0.80442 -0.192035,-1.62472 -0.03265,-2.41327 0.355007,-1.75638 2.415571,-6.0561 3.063247,-7.42314 2.249443,-4.747868 4.719744,-9.393919 6.732511,-14.252415 0.711954,-1.868419 3.2796,-6.942601 1.717548,-9.160801 -1.486657,-2.111132 -6.792537,-0.963377 -8.612523,-0.976847 -10.471198,1.348576 -20.900501,3.015795 -31.359697,4.456287 0,0 -1.669222,1.258985 -1.669222,1.258985 z" />
    <path
       style="fill:#000000;stroke-width:0.529167"
       id="path835"
       d="m 98.990339,93.58424 c 6.188481,-0.412895 12.377791,-0.808839 18.576721,-1.040804 1.74576,0.325641 6.00912,-0.577541 7.53988,0.29646 0.61645,0.351967 0.54545,0.97168 0.6509,1.57263 0.17692,5.643254 -0.5475,11.276004 -1.0568,16.888534 -0.20657,2.98434 -0.36321,1.63681 0.24085,4.06269 0,0 3.17705,-1.59101 3.17705,-1.59101 v 0 c 0.9165,-2.95877 0.60949,-1.42134 0.88567,-4.61922 0.4377,-5.66773 1.2289,-11.356198 0.97551,-17.045054 -0.15533,-0.399045 -0.20034,-0.861301 -0.46601,-1.197134 -0.51532,-0.651404 -1.56788,-0.643416 -2.2598,-0.644808 -2.51253,-0.0051 -5.01257,0.507415 -7.51033,0.677529 -6.18896,0.423193 -12.39113,0.607682 -18.57815,1.02625 0,0 -2.175491,1.613937 -2.175491,1.613937 z" />
    <path
       style="fill:#000000;stroke-width:0.529167"
       id="path837"
       d="m 115.50636,63.83692 c -0.38317,6.062395 -0.58508,12.144959 -0.788,18.218485 -0.0896,2.974997 -0.19873,5.949257 -0.32862,8.922745 -0.004,0.08747 -0.15855,2.858934 -0.0717,3.13023 0.0819,0.25559 0.3894,0.36943 0.5841,0.554146 0,0 2.03802,-1.042831 2.03802,-1.042831 v 0 c 0.18508,-0.375285 0.45652,-0.719228 0.55525,-1.125855 0.0587,-0.241626 0.0364,-3.082886 0.0364,-3.108225 -0.003,-2.928334 -0.002,-5.856885 0.0636,-8.784696 0.17989,-6.016987 0.41675,-12.031921 0.51537,-18.051173 0,0 -2.60443,1.287174 -2.60443,1.287174 z" />
    <path
       style="fill:#000000;stroke-width:0.529167"
       id="path839"
       d="m 94.790992,79.576257 c 9.248528,-0.491778 18.489898,-1.163603 27.715248,-1.984981 4.00088,-0.581194 8.13681,-0.622644 12.08539,-1.579023 1.00806,-0.24416 1.97793,-0.625287 2.96689,-0.937932 0,0 1.63782,-1.23073 1.63782,-1.23073 v 0 c -2.34391,-0.37659 -1.01142,-0.300868 -4.32773,0.159356 -7.68363,1.066305 -0.28195,0.109971 -9.16602,1.220287 -6.12161,0.597329 -5.9224,0.631918 -12.16527,1.016929 -4.66059,0.28743 -9.38183,0.284607 -14.01747,0.904518 -0.674169,0.09015 -1.336874,0.251571 -2.005309,0.377354 0,0 -2.723549,2.054222 -2.723549,2.054222 z" />
  </g>
</svg>
