<?xml version="1.0" encoding="UTF-8" standalone="no"?>
<svg
   xmlns:dc="http://purl.org/dc/elements/1.1/"
   xmlns:cc="http://creativecommons.org/ns#"
   xmlns:rdf="http://www.w3.org/1999/02/22-rdf-syntax-ns#"
   xmlns:svg="http://www.w3.org/2000/svg"
   xmlns="http://www.w3.org/2000/svg"
   xmlns:sodipodi="http://sodipodi.sourceforge.net/DTD/sodipodi-0.dtd"
   xmlns:inkscape="http://www.inkscape.org/namespaces/inkscape"
   width="210mm"
   height="297mm"
   viewBox="0 0 210 297"
   version="1.1"
   id="svg8"
   inkscape:version="1.0.2 (e86c870879, 2021-01-15)"
   sodipodi:docname="drawing.svg">
  <defs
     id="defs2" />
  <sodipodi:namedview
     id="base"
     pagecolor="#ffffff"
     bordercolor="#666666"
     borderopacity="1.0"
     inkscape:pageopacity="0.0"
     inkscape:pageshadow="2"
     inkscape:zoom="0.37235872"
     inkscape:cx="-184.11415"
     inkscape:cy="557.31442"
     inkscape:document-units="mm"
     inkscape:current-layer="layer1"
     inkscape:document-rotation="0"
     showgrid="false"
     inkscape:window-width="1920"
     inkscape:window-height="1043"
     inkscape:window-x="0"
     inkscape:window-y="0"
     inkscape:window-maximized="1" />
  <metadata
     id="metadata5">
    <rdf:RDF>
      <cc:Work
         rdf:about="">
        <dc:format>image/svg+xml</dc:format>
        <dc:type
           rdf:resource="http://purl.org/dc/dcmitype/StillImage" />
        <dc:title></dc:title>
      </cc:Work>
    </rdf:RDF>
  </metadata>
  <g
     inkscape:label="Layer 1"
     inkscape:groupmode="layer"
     id="layer1">
    <path
       style="fill:#000000;stroke-width:0.529167"
       id="path833"
       d="m 76.437889,88.000609 c 6.790271,-2.711374 13.922718,-4.600702 21.102208,-5.95257 2.714993,-0.51122 5.438863,-1.045196 8.194573,-1.241747 1.97967,-0.141201 3.96635,0.155276 5.94953,0.232915 1.0527,0.56959 2.44926,0.744323 3.15811,1.708772 1.33576,1.817423 -0.23756,6.050875 -0.70955,7.464739 -0.58821,1.762028 -3.16398,7.493032 -3.3379,9.49179 -0.11343,1.303692 0.4706,2.574582 0.70589,3.861872 1.17203,0.82863 2.16901,1.99025 3.51609,2.48588 3.90142,1.43546 9.52337,0.89453 13.37729,0.57579 1.85745,-0.15362 14.18077,-1.65951 16.14877,-1.99124 2.71637,-0.45787 5.39695,-1.10733 8.09543,-1.661 0,0 0.80606,-0.60222 0.80606,-0.60222 v 0 c -2.07258,0.0862 -4.15251,0.0639 -6.21772,0.2585 -11.19108,1.05452 -4.73298,1.18214 -16.02112,1.93829 -3.72775,0.24971 -8.84337,0.56219 -12.56085,-0.8307 -1.24071,-0.46487 -2.18657,-1.4969 -3.27986,-2.24535 -0.2897,-1.17917 -0.95228,-2.326122 -0.86909,-3.537504 0.15317,-2.230392 2.81375,-7.671022 3.47787,-9.573294 0.62184,-1.78118 2.48072,-5.921102 0.21235,-7.876204 -1.08508,-0.93523 -2.75193,-0.796941 -4.1279,-1.195411 -2.25401,0.107664 -4.51855,0.08023 -6.76204,0.32299 -2.78374,0.30122 -5.54079,0.817489 -8.297745,1.306579 -6.663746,1.182161 -13.41668,2.477952 -19.775548,4.850143 0,0 -2.784848,2.20898 -2.784848,2.20898 z" />
    <path
       style="fill:#000000;stroke-width:0.529167"
       id="path835"
       d="m 38.686515,106.28183 c 5.212191,-0.82471 10.312156,-2.24157 15.565352,-2.85228 1.831298,-0.21289 3.675248,-0.44764 5.517703,-0.3818 1.405374,0.0502 2.77041,0.48498 4.155615,0.72747 0.762031,0.64652 1.828035,1.05138 2.286095,1.93956 1.681025,3.25949 -1.969405,10.80879 -2.982034,13.60818 -2.780591,7.68687 -1.922317,4.87202 -3.466822,12.66952 1.165161,7.21959 -0.336183,4.11117 4.308326,9.41729 0,0 1.87316,-1.08883 1.87316,-1.08883 v 0 c -2.531766,-6.33228 -1.627182,-2.98585 -2.596866,-10.07015 1.42345,-7.6762 0.586634,-4.95884 3.416474,-12.5684 1.142609,-3.07253 5.096068,-10.60289 2.792569,-14.08213 -0.610008,-0.92136 -1.832139,-1.23586 -2.748209,-1.8538 -1.493869,-0.19454 -2.975395,-0.55501 -4.481607,-0.58363 -1.861731,-0.0354 -3.719722,0.2057 -5.572387,0.39261 -4.862576,0.49055 -9.657578,1.45702 -14.498251,2.10087 0,0 -3.569118,2.62552 -3.569118,2.62552 z" />
  </g>
</svg>
